<svg width="161" height="48" viewBox="0 0 161 48" fill="none" xmlns="http://www.w3.org/2000/svg">
<path d="M47.0097 36.0515H46.7811L46.8386 36.2428L46.9956 36.0434L47.2984 35.7795C48.7925 34.6782 50.1296 33.3785 51.2727 31.9162C51.9238 31.0739 52.5401 30.1204 52.0384 29.0448C51.5099 27.8961 50.3692 27.783 49.228 27.7623C45.4683 27.6972 42.0568 29.0337 38.6337 30.3314C35.2454 32.8005 33.1583 34.4702 28.4911 36.2776C26.6588 37.714 24.9724 39.3273 23.4564 41.0943C22.4762 42.3157 21.4879 43.5488 21.2048 45.1412C20.9448 46.5923 21.4728 47.2778 22.9355 47.4923C24.2199 47.6349 25.5197 47.5297 26.7644 47.1824C29.2349 46.6192 31.6358 45.7859 33.924 44.6976C31.7956 44.9732 29.7126 45.4214 27.6028 45.6853C26.351 45.8423 24.8959 45.9953 24.0994 44.7127C23.303 43.4302 24.2413 42.2663 24.8651 41.1942C25.9866 39.2798 27.6866 37.8822 29.2795 36.3993C35.6578 37.2876 37.2204 35.7179 38.4686 31.2036C38.7826 31.1117 39.1046 31.0274 39.4145 30.928C42.0452 30.082 44.7021 29.4193 47.4973 29.7792C49.3391 30.0089 50.0664 31.3106 49.1705 32.8884C48.5627 33.8399 47.8965 34.7529 47.1758 35.622C47.0097 35.73 46.8487 35.8426 47.0097 36.0515Z" fill="#0892D6"/>
<path d="M38.6322 30.3314C39.7224 21.8392 39.0644 13.2138 36.6986 4.98523C37.6136 4.83381 38.2299 5.75091 39.2984 5.53286L34.5201 0C34.0528 2.62461 33.6394 4.94284 33.1876 7.466C34.1971 6.66196 34.5 5.58587 35.4428 5.05388C36.099 9.18916 36.5916 13.2396 36.8364 17.3057C37.0584 20.9696 37.0812 24.6244 35.8269 28.1449C34.9996 30.4767 33.4758 31.947 30.8497 32.1651C28.4666 32.3735 26.068 32.0141 23.8506 31.1162C17.6747 28.6314 13.2603 23.9677 9.03317 19.0824C8.57386 18.5539 8.89891 18.3167 9.29361 18.1174C10.0593 17.7343 10.8558 17.3825 11.8627 16.9191C8.83028 16.2569 6.65134 14.775 5.47632 11.6548C4.95544 14.9093 3.22117 16.7813 0.000976562 17.7423C3.10609 18.3359 5.43798 19.4615 6.46157 22.4288C6.58019 22.1148 6.6453 21.9387 6.71394 21.7666C6.90523 21.2841 7.0203 20.4573 7.30345 20.3957C7.93941 20.2539 8.10749 21.0695 8.45222 21.4829C13.8852 28.0914 20.162 33.5586 28.4901 36.2771C29.0958 36.3988 28.9762 36.3382 29.279 36.3957C35.6573 37.2841 37.2199 35.7144 38.4681 31.2C38.5021 30.9069 38.5569 30.6167 38.6322 30.3314Z" fill="#F58423"/>
<path d="M158.816 1.7918C158.988 2.17439 158.877 2.71848 159.333 2.87899C159.984 3.10511 159.746 2.16682 160.242 2.05981C160.476 2.30461 160.219 2.87546 160.645 2.86385C161.131 2.86385 160.963 2.37779 160.978 2.09817C161.005 1.62725 160.978 1.1523 160.978 0.677855C160.978 0.367949 160.928 0.1075 160.542 0.0958907C160.232 0.0958907 159.983 0.161001 159.899 0.509267C159.815 0.857532 159.715 1.24063 159.6 1.59647C159.566 1.70751 159.696 2.05073 159.37 1.86449C159.237 1.78777 159.198 1.55053 159.117 1.38599C159.086 1.01441 158.989 0.651379 158.83 0.313938C158.604 -0.007576 158.007 -0.0691494 157.957 0.355835C157.862 1.19823 157.697 2.11685 158.126 2.98045C158.791 2.65338 158.142 1.92202 158.816 1.7918Z" fill="#484848"/>
<path d="M107.194 18.6463V23.9112C107.194 27.2959 107.194 27.2611 110.639 27.2308C111.516 27.2308 111.761 26.9971 111.754 26.1164C111.703 21.9892 111.731 17.8615 111.731 13.7343C111.731 10.8512 111.103 10.2885 108.189 10.3268C107.351 10.3268 107.167 10.618 107.182 11.3868C107.22 13.7913 107.194 16.2261 107.194 18.6463Z" fill="#FDFDFD"/>
<path d="M25.722 23.3323C25.7084 24.118 25.8697 24.897 26.1942 25.6128C26.5187 26.3286 26.9982 26.9633 27.5981 27.4711C29.0143 28.6769 30.475 28.2367 31.0096 26.4909C31.5441 24.745 30.9672 23.202 29.9567 21.8196C29.3005 20.9277 28.4521 20.1196 27.1922 20.5371C25.8592 20.9736 25.7407 22.1532 25.722 23.3323Z" fill="#F58423"/>
<path d="M109.476 8.91358C109.805 8.88675 110.137 8.88675 110.467 8.91358C111.616 9.10891 111.845 8.53049 111.734 7.54676C111.539 5.81604 108.832 4.45327 107.434 5.41781C107.308 5.54332 107.225 5.70552 107.197 5.88115C106.65 8.22059 107.174 8.91358 109.476 8.91358Z" fill="#FDFDFD"/>
<path d="M155.08 0.133759C156.676 0.616283 155.389 2.21679 156.228 3.01074C156.903 2.11888 155.845 0.644548 157.316 0.133759H155.08Z" fill="#484848"/>
<path d="M66.471 27.7663C59.0968 27.621 55.6394 22.4596 56.0109 15.365C56.2022 11.7199 57.3202 8.47343 60.604 6.36718C65.9072 2.95973 75.9479 4.39166 77.1481 13.971C77.4239 15.8978 77.3526 17.8585 76.9376 19.7603C75.7172 24.956 71.9574 27.7966 66.471 27.7663ZM72.7847 16.3412C72.821 14.9182 72.5602 13.5033 72.019 12.1867C71.5803 11.0716 70.7952 10.1268 69.7793 9.49135C68.7633 8.85587 67.5703 8.56327 66.3756 8.65663C65.1745 8.63731 64.0008 9.01642 63.038 9.73472C62.0751 10.453 61.3774 11.47 61.0537 12.6269C60.3203 14.8481 60.2708 17.2385 60.9119 19.4882C61.6967 22.2985 63.592 23.7572 66.368 23.8148C69.408 23.8799 71.3225 22.5474 72.2795 19.6951C72.6529 18.6178 72.824 17.4807 72.7842 16.3412H72.7847Z" fill="#0B93D6"/>
<path d="M115.701 20.3881C116.777 20.1968 117.673 20.3881 118.178 21.9695C118.683 23.5508 120.475 23.8148 122.007 23.9909C124.423 24.2741 126.249 23.3479 126.582 21.7666C126.858 20.4724 125.817 19.4236 123.302 18.6347C121.72 18.137 120.09 17.7812 118.493 17.3289C114.825 16.2912 113.424 14.5302 113.515 11.0844C113.584 7.98282 115.43 5.83518 118.761 5.05789C120.996 4.50103 123.34 4.55789 125.545 5.22244C128.156 6.04163 129.63 7.87179 130.138 10.5136C130.29 11.2792 130.184 11.7118 129.174 11.731C127.492 11.7618 126.198 11.4857 125.215 9.85487C124.181 8.13575 120.405 7.87532 118.851 9.17349C117.385 10.3985 117.576 12.1792 119.433 12.8757C121.646 13.7065 123.976 14.2425 126.252 14.9047C128.3 15.5018 130.027 16.4785 130.724 18.6685C131.027 19.5233 131.149 20.4316 131.083 21.3361C131.017 22.2406 130.765 23.1216 130.341 23.9235C129.918 24.7255 129.333 25.4309 128.623 25.9954C127.913 26.5598 127.094 26.971 126.217 27.203C123.645 27.9842 120.899 27.9842 118.326 27.203C117.099 26.8861 115.986 26.2293 115.115 25.3082C114.244 24.3871 113.651 23.239 113.403 21.9957C113.116 20.8086 113.166 20.1464 114.624 20.3644C114.982 20.3955 115.342 20.4034 115.701 20.3881Z" fill="#0B93D6"/>
<path d="M83.964 25.2775V30.772C83.9825 31.2497 83.879 31.7243 83.6633 32.151C83.4475 32.5776 83.1266 32.9422 82.7308 33.2104C82.335 33.4786 81.8774 33.6415 81.4012 33.6838C80.9249 33.7261 80.4458 33.6464 80.0089 33.4521C79.538 33.276 79.6556 32.9393 79.6556 32.6446C79.6556 27.1808 79.5673 21.7136 79.7061 16.2534C79.7904 12.8419 82.4246 10.4757 86.2171 10.0699C92.9594 9.34612 95.6667 13.0478 95.5936 19.144C95.6032 20.9073 95.1602 22.6436 94.307 24.1868C92.0508 28.1413 87.211 28.7541 83.964 25.2775ZM91.1393 18.7952C91.2544 17.6603 91.0375 16.5164 90.5149 15.5023C90.2536 14.965 89.8449 14.5131 89.3365 14.1993C88.8281 13.8854 88.2409 13.7226 87.6435 13.7297C86.311 13.6954 85.2314 14.1739 84.6838 15.3262C84.1422 16.3859 83.8632 17.5603 83.8705 18.7504C83.8778 19.9404 84.1711 21.1113 84.7256 22.1643C85.3576 23.3817 86.468 23.8299 87.8272 23.7764C88.3981 23.7597 88.9526 23.5819 89.4267 23.2635C89.9009 22.9451 90.2753 22.4991 90.5069 21.977C91.0212 21 91.2409 19.8947 91.1393 18.7952Z" fill="#0B93D6"/>
<path d="M140.619 27.5054C136.169 27.5054 133.44 25.0014 132.934 20.5789C132.71 18.932 132.79 17.2579 133.172 15.6401C134.148 11.8112 136.809 9.79733 140.743 9.89676C144.677 9.99619 147.332 12.1635 148.117 15.9535C148.733 18.9284 148.542 21.8423 146.869 24.4573C145.443 26.7129 143.21 27.5402 140.619 27.5054ZM144.129 18.6534C144.06 17.8821 143.947 17.1152 143.793 16.3563C143.648 15.6017 143.242 14.9221 142.647 14.4369C142.051 13.9517 141.303 13.6918 140.535 13.703C139.763 13.6959 139.016 13.9673 138.428 14.4673C137.841 14.9673 137.454 15.6624 137.338 16.425C136.955 18.2038 137.045 20.0519 137.598 21.7852C137.772 22.4134 138.147 22.9671 138.665 23.3614C139.184 23.7557 139.818 23.9687 140.47 23.9677C141.764 24.0404 142.71 23.359 143.337 22.2067C143.927 21.1079 143.923 19.9172 144.129 18.6534Z" fill="#0B93D6"/>
<path d="M98.1885 15.3767C98.1885 12.7157 98.1426 10.0548 98.2193 7.39382C98.2193 6.71243 97.6137 5.67773 98.8053 5.36833C100.298 4.98524 101.761 5.55609 102.331 6.59331C102.605 7.15369 102.693 7.78718 102.58 8.40077C102.412 9.79434 102.645 10.7286 104.388 10.3692C105.012 10.239 105.199 10.5605 105.184 11.1692C105.161 12.318 104.637 13.1604 103.531 13.3517C102.612 13.5087 102.572 13.9644 102.581 14.6842C102.612 17.2533 102.634 19.8224 102.581 22.3874C102.558 23.4019 102.922 24.0263 103.928 23.9188C105.291 23.7673 105.211 24.5466 105.19 25.4501C105.156 27.2419 105.19 27.246 103.326 27.2344C102.56 27.2344 101.794 27.2152 101.028 27.1884C99.1637 27.1233 98.2789 26.3576 98.237 24.5083C98.1643 21.4683 98.2138 18.4243 98.2138 15.3842L98.1885 15.3767Z" fill="#0B93D6"/>
<path d="M150.535 16.211C150.535 12.9807 150.57 9.75041 150.516 6.52012C150.516 5.57072 150.81 5.31784 151.737 5.31784C154.417 5.31784 155.042 5.90334 155.042 8.54158C155.042 14.3344 155.011 20.1272 155.072 25.924C155.072 27.0193 154.762 27.2525 153.717 27.2364C150.537 27.1829 150.537 27.2364 150.537 24.047L150.535 16.211Z" fill="#0B93D6"/>
<path d="M107.193 18.6463C107.193 16.2266 107.22 13.8069 107.193 11.3716C107.193 10.6059 107.362 10.3263 108.2 10.3117C111.114 10.2698 111.742 10.8361 111.742 13.7191C111.742 17.8463 111.715 21.974 111.765 26.1012C111.765 26.982 111.528 27.2076 110.651 27.2157C107.204 27.2464 107.204 27.2808 107.204 23.896L107.193 18.6463Z" fill="#0B93D6"/>
<path d="M109.475 8.91357C107.178 8.91357 106.649 8.22057 107.197 5.8887C107.226 5.71312 107.309 5.55095 107.434 5.42536C108.832 4.46031 111.539 5.80846 111.734 7.55433C111.845 8.54209 111.619 9.11646 110.467 8.92113C110.137 8.89176 109.805 8.88924 109.475 8.91357Z" fill="#0B93D6"/>
<path d="M46.9933 36.0364L46.8364 36.2352L46.7788 36.0439H47.0085L46.9933 36.0364Z" fill="#0A90D4"/>
<path d="M47.0107 36.052C46.8502 35.8451 47.0107 35.7305 47.1374 35.6038C47.1938 35.6572 47.2473 35.7135 47.2979 35.7724L46.9951 36.0369L47.0107 36.052Z" fill="#0A90D4"/>
<path d="M61.1271 45.5604V44.6332C61.2333 44.7269 61.3597 44.8111 61.5064 44.8861C61.6563 44.961 61.8124 45.025 61.9747 45.078C62.1401 45.128 62.3056 45.167 62.471 45.1951C62.6365 45.2232 62.7895 45.2373 62.9299 45.2373C63.4138 45.2373 63.7744 45.1483 64.0116 44.9703C64.252 44.7893 64.3722 44.5302 64.3722 44.193C64.3722 44.012 64.3316 43.8543 64.2504 43.7201C64.1724 43.5859 64.0631 43.4641 63.9226 43.3549C63.7822 43.2425 63.6151 43.1363 63.4216 43.0364C63.2312 42.9334 63.0251 42.8257 62.8035 42.7133C62.5694 42.5947 62.3509 42.4745 62.1479 42.3528C61.945 42.231 61.7687 42.0968 61.6188 41.9501C61.469 41.8034 61.3503 41.6379 61.2629 41.4537C61.1786 41.2664 61.1365 41.0479 61.1365 40.7982C61.1365 40.4922 61.2036 40.2269 61.3379 40.0021C61.4721 39.7742 61.6485 39.5869 61.867 39.4402C62.0855 39.2935 62.3337 39.1842 62.6115 39.1124C62.8925 39.0406 63.1781 39.0047 63.4684 39.0047C64.1302 39.0047 64.6125 39.0843 64.9153 39.2436V40.1286C64.5189 39.8539 64.01 39.7165 63.3888 39.7165C63.2171 39.7165 63.0454 39.7352 62.8737 39.7727C62.702 39.807 62.5491 39.8648 62.4148 39.9459C62.2806 40.0271 62.1714 40.1317 62.0871 40.2597C62.0028 40.3877 61.9606 40.5438 61.9606 40.7279C61.9606 40.8996 61.9919 41.0479 62.0543 41.1728C62.1198 41.2976 62.2151 41.4116 62.3399 41.5146C62.4648 41.6176 62.6162 41.7175 62.7941 41.8143C62.9752 41.9111 63.1828 42.0172 63.4169 42.1327C63.6573 42.2513 63.8852 42.3762 64.1006 42.5073C64.316 42.6384 64.5048 42.7836 64.6672 42.9428C64.8295 43.102 64.9575 43.2784 65.0511 43.4719C65.1479 43.6655 65.1963 43.8871 65.1963 44.1368C65.1963 44.4677 65.1307 44.7487 64.9996 44.9797C64.8716 45.2076 64.6968 45.3933 64.4752 45.5369C64.2567 45.6805 64.0038 45.7836 63.7166 45.846C63.4294 45.9115 63.1266 45.9443 62.8082 45.9443C62.702 45.9443 62.5709 45.935 62.4148 45.9162C62.2588 45.9006 62.0996 45.8756 61.9372 45.8413C61.7749 45.8101 61.6204 45.7711 61.4736 45.7242C61.3301 45.6743 61.2145 45.6197 61.1271 45.5604ZM68.4366 45.9443C67.728 45.9443 67.1614 45.7211 66.7369 45.2747C66.3154 44.8252 66.1047 44.2305 66.1047 43.4907C66.1047 42.6852 66.3248 42.0562 66.765 41.6036C67.2051 41.1509 67.7998 40.9246 68.549 40.9246C69.2639 40.9246 69.8211 41.1447 70.2207 41.5848C70.6234 42.025 70.8248 42.6353 70.8248 43.4157C70.8248 44.1806 70.6078 44.794 70.1739 45.256C69.7431 45.7149 69.164 45.9443 68.4366 45.9443ZM68.4928 41.5708C67.9996 41.5708 67.6094 41.7394 67.3222 42.0765C67.035 42.4105 66.8914 42.8726 66.8914 43.4626C66.8914 44.0307 67.0365 44.4787 67.3269 44.8065C67.6172 45.1342 68.0058 45.2981 68.4928 45.2981C68.9892 45.2981 69.37 45.1374 69.6354 44.8158C69.9038 44.4943 70.0381 44.037 70.0381 43.4438C70.0381 42.8445 69.9038 42.3824 69.6354 42.0578C69.37 41.7331 68.9892 41.5708 68.4928 41.5708ZM72.8195 45.8319H72.0516V38.7332H72.8195V45.8319ZM78.2513 45.8319H77.4834V45.0734H77.4646C77.1462 45.654 76.653 45.9443 75.9849 45.9443C74.8424 45.9443 74.2711 45.2638 74.2711 43.9027V41.037H75.0344V43.781C75.0344 44.7924 75.4215 45.2981 76.1957 45.2981C76.5703 45.2981 76.8778 45.1608 77.1181 44.8861C77.3616 44.6082 77.4834 44.2461 77.4834 43.7997V41.037H78.2513V45.8319ZM82.0302 45.7851C81.8491 45.885 81.6103 45.935 81.3137 45.935C80.474 45.935 80.0541 45.4667 80.0541 44.5302V41.6925H79.23V41.037H80.0541V39.8663L80.822 39.6182V41.037H82.0302V41.6925H80.822V44.3944C80.822 44.7159 80.8767 44.9454 80.9859 45.0827C81.0952 45.2201 81.2763 45.2888 81.5291 45.2888C81.7227 45.2888 81.8897 45.2357 82.0302 45.1296V45.7851ZM83.449 39.8195C83.3116 39.8195 83.1946 39.7727 83.0978 39.679C83.001 39.5854 82.9526 39.4668 82.9526 39.3232C82.9526 39.1796 83.001 39.0609 83.0978 38.9673C83.1946 38.8705 83.3116 38.8221 83.449 38.8221C83.5895 38.8221 83.7081 38.8705 83.8048 38.9673C83.9047 39.0609 83.9547 39.1796 83.9547 39.3232C83.9547 39.4605 83.9047 39.5776 83.8048 39.6744C83.7081 39.7711 83.5895 39.8195 83.449 39.8195ZM83.8236 45.8319H83.0556V41.037H83.8236V45.8319ZM87.3823 45.9443C86.6737 45.9443 86.1071 45.7211 85.6826 45.2747C85.2611 44.8252 85.0504 44.2305 85.0504 43.4907C85.0504 42.6852 85.2705 42.0562 85.7107 41.6036C86.1508 41.1509 86.7455 40.9246 87.4947 40.9246C88.2096 40.9246 88.7668 41.1447 89.1664 41.5848C89.5691 42.025 89.7704 42.6353 89.7704 43.4157C89.7704 44.1806 89.5535 44.794 89.1196 45.256C88.6888 45.7149 88.1097 45.9443 87.3823 45.9443ZM87.4385 41.5708C86.9453 41.5708 86.5551 41.7394 86.2679 42.0765C85.9807 42.4105 85.8371 42.8726 85.8371 43.4626C85.8371 44.0307 85.9822 44.4787 86.2726 44.8065C86.5629 45.1342 86.9515 45.2981 87.4385 45.2981C87.9349 45.2981 88.3157 45.1374 88.5811 44.8158C88.8495 44.4943 88.9838 44.037 88.9838 43.4438C88.9838 42.8445 88.8495 42.3824 88.5811 42.0578C88.3157 41.7331 87.9349 41.5708 87.4385 41.5708ZM94.9775 45.8319H94.2095V43.0973C94.2095 42.0796 93.838 41.5708 93.0951 41.5708C92.7111 41.5708 92.3927 41.716 92.1398 42.0063C91.8901 42.2935 91.7652 42.6572 91.7652 43.0973V45.8319H90.9973V41.037H91.7652V41.833H91.784C92.1461 41.2274 92.6705 40.9246 93.3573 40.9246C93.8817 40.9246 94.2829 41.0947 94.5607 41.435C94.8386 41.7721 94.9775 42.2607 94.9775 42.9006V45.8319ZM96.1388 45.6587V44.8346C96.5571 45.1436 97.0175 45.2981 97.5201 45.2981C98.1944 45.2981 98.5315 45.0734 98.5315 44.6238C98.5315 44.4958 98.5019 44.3881 98.4426 44.3007C98.3864 44.2102 98.3083 44.1306 98.2084 44.0619C98.1117 43.9932 97.9962 43.9324 97.8619 43.8793C97.7308 43.8231 97.5888 43.7654 97.4358 43.7061C97.2235 43.6218 97.0362 43.5375 96.8739 43.4532C96.7147 43.3658 96.5805 43.269 96.4712 43.1629C96.3651 43.0536 96.2839 42.9303 96.2277 42.7929C96.1747 42.6556 96.1481 42.4948 96.1481 42.3106C96.1481 42.0859 96.1996 41.8877 96.3026 41.716C96.4057 41.5411 96.543 41.396 96.7147 41.2805C96.8864 41.1619 97.0815 41.0729 97.3 41.0136C97.5217 40.9543 97.7496 40.9246 97.9837 40.9246C98.3989 40.9246 98.7704 40.9964 99.0981 41.14V41.9173C98.7454 41.6863 98.3396 41.5708 97.8807 41.5708C97.7371 41.5708 97.6075 41.588 97.492 41.6223C97.3765 41.6535 97.2766 41.6988 97.1923 41.7581C97.1112 41.8174 97.0472 41.8892 97.0003 41.9735C96.9566 42.0547 96.9348 42.1452 96.9348 42.2451C96.9348 42.37 96.9566 42.4745 97.0003 42.5588C97.0472 42.6431 97.1143 42.718 97.2017 42.7836C97.2891 42.8491 97.3952 42.9085 97.5201 42.9615C97.645 43.0146 97.787 43.0723 97.9462 43.1348C98.1585 43.2159 98.3489 43.3002 98.5175 43.3876C98.6861 43.4719 98.8297 43.5687 98.9483 43.678C99.0669 43.7841 99.1575 43.9074 99.2199 44.0479C99.2854 44.1884 99.3182 44.3554 99.3182 44.5489C99.3182 44.7862 99.2652 44.9922 99.159 45.167C99.056 45.3418 98.9171 45.487 98.7423 45.6025C98.5674 45.718 98.3661 45.8038 98.1382 45.86C97.9103 45.9162 97.6715 45.9443 97.4218 45.9443C96.9285 45.9443 96.5009 45.8491 96.1388 45.6587ZM106.487 48.0889H105.794V38.499H106.487V48.0889ZM110.481 45.5604V44.6332C110.588 44.7269 110.714 44.8111 110.861 44.8861C111.011 44.961 111.167 45.025 111.329 45.078C111.494 45.128 111.66 45.167 111.825 45.1951C111.991 45.2232 112.144 45.2373 112.284 45.2373C112.768 45.2373 113.129 45.1483 113.366 44.9703C113.606 44.7893 113.727 44.5302 113.727 44.193C113.727 44.012 113.686 43.8543 113.605 43.7201C113.527 43.5859 113.417 43.4641 113.277 43.3549C113.136 43.2425 112.969 43.1363 112.776 43.0364C112.586 42.9334 112.379 42.8257 112.158 42.7133C111.924 42.5947 111.705 42.4745 111.502 42.3528C111.299 42.231 111.123 42.0968 110.973 41.9501C110.823 41.8034 110.705 41.6379 110.617 41.4537C110.533 41.2664 110.491 41.0479 110.491 40.7982C110.491 40.4922 110.558 40.2269 110.692 40.0021C110.826 39.7742 111.003 39.5869 111.221 39.4402C111.44 39.2935 111.688 39.1842 111.966 39.1124C112.247 39.0406 112.532 39.0047 112.823 39.0047C113.485 39.0047 113.967 39.0843 114.27 39.2436V40.1286C113.873 39.8539 113.364 39.7165 112.743 39.7165C112.571 39.7165 112.4 39.7352 112.228 39.7727C112.056 39.807 111.903 39.8648 111.769 39.9459C111.635 40.0271 111.526 40.1317 111.441 40.2597C111.357 40.3877 111.315 40.5438 111.315 40.7279C111.315 40.8996 111.346 41.0479 111.409 41.1728C111.474 41.2976 111.569 41.4116 111.694 41.5146C111.819 41.6176 111.971 41.7175 112.148 41.8143C112.33 41.9111 112.537 42.0172 112.771 42.1327C113.012 42.2513 113.24 42.3762 113.455 42.5073C113.67 42.6384 113.859 42.7836 114.022 42.9428C114.184 43.102 114.312 43.2784 114.405 43.4719C114.502 43.6655 114.551 43.8871 114.551 44.1368C114.551 44.4677 114.485 44.7487 114.354 44.9797C114.226 45.2076 114.051 45.3933 113.83 45.5369C113.611 45.6805 113.358 45.7836 113.071 45.846C112.784 45.9115 112.481 45.9443 112.163 45.9443C112.056 45.9443 111.925 45.935 111.769 45.9162C111.613 45.9006 111.454 45.8756 111.292 45.8413C111.129 45.8101 110.975 45.7711 110.828 45.7242C110.684 45.6743 110.569 45.6197 110.481 45.5604ZM119.641 43.6264H116.255C116.268 44.1603 116.411 44.5723 116.686 44.8626C116.961 45.153 117.338 45.2981 117.819 45.2981C118.359 45.2981 118.855 45.1202 119.308 44.7643V45.4854C118.887 45.7914 118.329 45.9443 117.636 45.9443C116.959 45.9443 116.427 45.7274 116.04 45.2934C115.653 44.8564 115.459 44.243 115.459 43.4532C115.459 42.7071 115.67 42.0999 116.091 41.6317C116.516 41.1603 117.042 40.9246 117.669 40.9246C118.297 40.9246 118.782 41.1275 119.126 41.5333C119.469 41.9392 119.641 42.5026 119.641 43.2237V43.6264ZM118.854 42.9756C118.851 42.5323 118.743 42.1873 118.531 41.9407C118.322 41.6941 118.03 41.5708 117.655 41.5708C117.293 41.5708 116.986 41.7003 116.733 41.9595C116.48 42.2186 116.324 42.5573 116.264 42.9756H118.854ZM123.307 41.8143C123.173 41.7113 122.979 41.6598 122.726 41.6598C122.399 41.6598 122.124 41.8143 121.902 42.1233C121.684 42.4324 121.574 42.8538 121.574 43.3876V45.8319H120.807V41.037H121.574V42.025H121.593C121.702 41.6879 121.869 41.4256 122.094 41.2383C122.319 41.0479 122.57 40.9527 122.848 40.9527C123.048 40.9527 123.201 40.9745 123.307 41.0183V41.8143ZM127.91 41.037L126 45.8319H125.246L123.429 41.037H124.272L125.489 44.5208C125.58 44.7768 125.636 45 125.658 45.1904H125.676C125.708 44.9501 125.758 44.7331 125.826 44.5395L127.1 41.037H127.91ZM129.132 39.8195C128.995 39.8195 128.878 39.7727 128.781 39.679C128.684 39.5854 128.636 39.4668 128.636 39.3232C128.636 39.1796 128.684 39.0609 128.781 38.9673C128.878 38.8705 128.995 38.8221 129.132 38.8221C129.273 38.8221 129.391 38.8705 129.488 38.9673C129.588 39.0609 129.638 39.1796 129.638 39.3232C129.638 39.4605 129.588 39.5776 129.488 39.6744C129.391 39.7711 129.273 39.8195 129.132 39.8195ZM129.507 45.8319H128.739V41.037H129.507V45.8319ZM134.831 41.037L132.92 45.8319H132.166L130.35 41.037H131.193L132.41 44.5208C132.501 44.7768 132.557 45 132.579 45.1904H132.597C132.628 44.9501 132.678 44.7331 132.747 44.5395L134.021 41.037H134.831ZM139.513 43.6264H136.128C136.14 44.1603 136.284 44.5723 136.559 44.8626C136.833 45.153 137.211 45.2981 137.692 45.2981C138.232 45.2981 138.728 45.1202 139.181 44.7643V45.4854C138.76 45.7914 138.202 45.9443 137.509 45.9443C136.832 45.9443 136.3 45.7274 135.913 45.2934C135.525 44.8564 135.332 44.243 135.332 43.4532C135.332 42.7071 135.543 42.0999 135.964 41.6317C136.389 41.1603 136.915 40.9246 137.542 40.9246C138.17 40.9246 138.655 41.1275 138.998 41.5333C139.342 41.9392 139.513 42.5026 139.513 43.2237V43.6264ZM138.727 42.9756C138.724 42.5323 138.616 42.1873 138.404 41.9407C138.195 41.6941 137.903 41.5708 137.528 41.5708C137.166 41.5708 136.858 41.7003 136.606 41.9595C136.353 42.2186 136.197 42.5573 136.137 42.9756H138.727ZM140.389 45.6587V44.8346C140.807 45.1436 141.268 45.2981 141.77 45.2981C142.445 45.2981 142.782 45.0734 142.782 44.6238C142.782 44.4958 142.752 44.3881 142.693 44.3007C142.637 44.2102 142.559 44.1306 142.459 44.0619C142.362 43.9932 142.247 43.9324 142.112 43.8793C141.981 43.8231 141.839 43.7654 141.686 43.7061C141.474 43.6218 141.287 43.5375 141.124 43.4532C140.965 43.3658 140.831 43.269 140.722 43.1629C140.615 43.0536 140.534 42.9303 140.478 42.7929C140.425 42.6556 140.398 42.4948 140.398 42.3106C140.398 42.0859 140.45 41.8877 140.553 41.716C140.656 41.5411 140.793 41.396 140.965 41.2805C141.137 41.1619 141.332 41.0729 141.55 41.0136C141.772 40.9543 142 40.9246 142.234 40.9246C142.649 40.9246 143.021 40.9964 143.348 41.14V41.9173C142.996 41.6863 142.59 41.5708 142.131 41.5708C141.987 41.5708 141.858 41.588 141.742 41.6223C141.627 41.6535 141.527 41.6988 141.443 41.7581C141.362 41.8174 141.298 41.8892 141.251 41.9735C141.207 42.0547 141.185 42.1452 141.185 42.2451C141.185 42.37 141.207 42.4745 141.251 42.5588C141.298 42.6431 141.365 42.718 141.452 42.7836C141.539 42.8491 141.646 42.9085 141.77 42.9615C141.895 43.0146 142.037 43.0723 142.197 43.1348C142.409 43.2159 142.599 43.3002 142.768 43.3876C142.936 43.4719 143.08 43.5687 143.199 43.678C143.317 43.7841 143.408 43.9074 143.47 44.0479C143.536 44.1884 143.569 44.3554 143.569 44.5489C143.569 44.7862 143.515 44.9922 143.409 45.167C143.306 45.3418 143.167 45.487 142.993 45.6025C142.818 45.718 142.616 45.8038 142.389 45.86C142.161 45.9162 141.922 45.9443 141.672 45.9443C141.179 45.9443 140.751 45.8491 140.389 45.6587Z" fill="#484848"/>
</svg>
